<svg width="120" height="120" viewBox="0 0 120 120" fill="none" xmlns="http://www.w3.org/2000/svg">
<path fill-rule="evenodd" clip-rule="evenodd" d="M57 10C29.3858 10 7.00002 32.3858 7.00002 60C7.00002 87.6142 29.3858 110 57 110C75.002 110 90.7819 100.486 99.5863 86.2127L113.3 84.6889C114.061 84.6044 114.448 83.7325 114.002 83.1114L105.667 71.5156C106.539 67.8186 107 63.9631 107 60C107 32.3858 84.6143 10 57 10Z" fill="#FF802B"/>
<rect x="37" y="61.0001" width="8" height="8" rx="4" fill="white"/>
<path d="M53 60.8622C53 58.653 54.7909 56.8622 57 56.8622V56.8622C59.2091 56.8622 61 58.653 61 60.8622V65.0001C61 67.2093 59.2091 69.0001 57 69.0001V69.0001C54.7909 69.0001 53 67.2093 53 65.0001V60.8622Z" fill="white"/>
<rect x="69" y="49.0001" width="8" height="21" rx="4" fill="white"/>
</svg>
