<svg width="48" height="48" viewBox="0 0 48 48" fill="none" xmlns="http://www.w3.org/2000/svg">
<rect x="0.5" y="0.5" width="47" height="47" rx="23.5" fill="#7DFDFE" stroke="black"/>
<path fill-rule="evenodd" clip-rule="evenodd" d="M19.7315 13.7098C20.8355 13.659 21.1875 13.6477 23.9997 13.6477C26.812 13.6477 27.164 13.6599 28.267 13.7098C29.3701 13.7597 30.123 13.9357 30.7818 14.1908C31.4717 14.4515 32.0976 14.859 32.6153 15.3861C33.1423 15.9028 33.5489 16.5277 33.8087 17.2185C34.0647 17.8774 34.2397 18.6303 34.2906 19.7315C34.3414 20.8374 34.3527 21.1894 34.3527 24.0006C34.3527 26.8129 34.3404 27.1649 34.2906 28.2689C34.2407 29.3701 34.0647 30.123 33.8087 30.7818C33.5489 31.4727 33.1416 32.0987 32.6153 32.6162C32.0976 33.1432 31.4717 33.5498 30.7818 33.8096C30.123 34.0656 29.3701 34.2406 28.2689 34.2915C27.164 34.3423 26.812 34.3536 23.9997 34.3536C21.1875 34.3536 20.8355 34.3414 19.7315 34.2915C18.6303 34.2416 17.8774 34.0656 17.2186 33.8096C16.5277 33.5498 15.9017 33.1425 15.3842 32.6162C14.8575 32.0992 14.4499 31.4735 14.1898 30.7828C13.9348 30.1239 13.7597 29.371 13.7089 28.2698C13.6581 27.1639 13.6468 26.8119 13.6468 24.0006C13.6468 21.1884 13.659 20.8364 13.7089 19.7334C13.7588 18.6303 13.9348 17.8774 14.1898 17.2185C14.4503 16.5278 14.8582 15.9021 15.3851 15.3851C15.9019 14.8585 16.5272 14.4509 17.2176 14.1908C17.8764 13.9357 18.6294 13.7606 19.7306 13.7098H19.7315ZM28.1833 15.5734C27.0915 15.5235 26.764 15.5131 23.9997 15.5131C21.2355 15.5131 20.908 15.5235 19.8162 15.5734C18.8063 15.6195 18.2586 15.7879 17.8934 15.9301C17.4106 16.1183 17.0651 16.3414 16.7028 16.7037C16.3593 17.0379 16.095 17.4447 15.9291 17.8943C15.787 18.2595 15.6186 18.8072 15.5724 19.8171C15.5226 20.9089 15.5122 21.2364 15.5122 24.0006C15.5122 26.7649 15.5226 27.0924 15.5724 28.1842C15.6186 29.1941 15.787 29.7418 15.9291 30.107C16.0948 30.5559 16.3593 30.9635 16.7028 31.2976C17.0369 31.6411 17.4444 31.9056 17.8934 32.0712C18.2586 32.2134 18.8063 32.3818 19.8162 32.4279C20.908 32.4778 21.2346 32.4882 23.9997 32.4882C26.7649 32.4882 27.0915 32.4778 28.1833 32.4279C29.1931 32.3818 29.7409 32.2134 30.1061 32.0712C30.5889 31.883 30.9343 31.6599 31.2967 31.2976C31.6402 30.9635 31.9047 30.5559 32.0703 30.107C32.2124 29.7418 32.3809 29.1941 32.427 28.1842C32.4769 27.0924 32.4873 26.7649 32.4873 24.0006C32.4873 21.2364 32.4769 20.9089 32.427 19.8171C32.3809 18.8072 32.2124 18.2595 32.0703 17.8943C31.8821 17.4115 31.659 17.0661 31.2967 16.7037C30.9625 16.3602 30.5557 16.0959 30.1061 15.9301C29.7409 15.7879 29.1931 15.6195 28.1833 15.5734V15.5734ZM22.6774 27.1922C23.4159 27.4996 24.2382 27.5411 25.0039 27.3096C25.7696 27.078 26.4312 26.5879 26.8756 25.9228C27.32 25.2577 27.5198 24.4589 27.4407 23.6629C27.3616 22.8668 27.0087 22.123 26.4421 21.5583C26.0809 21.1973 25.6442 20.9209 25.1633 20.749C24.6825 20.5771 24.1695 20.5139 23.6614 20.564C23.1532 20.6142 22.6625 20.7763 22.2245 21.0389C21.7865 21.3014 21.4122 21.6578 21.1285 22.0824C20.8448 22.507 20.6587 22.9892 20.5837 23.4943C20.5088 23.9994 20.5467 24.5148 20.6948 25.0035C20.843 25.4922 21.0976 25.9419 21.4404 26.3204C21.7832 26.6988 22.2057 26.9966 22.6774 27.1922ZM20.2369 20.2378C20.731 19.7437 21.3177 19.3517 21.9633 19.0843C22.6089 18.8169 23.3009 18.6792 23.9997 18.6792C24.6986 18.6792 25.3905 18.8169 26.0362 19.0843C26.6818 19.3517 27.2684 19.7437 27.7626 20.2378C28.2567 20.732 28.6487 21.3186 28.9161 21.9642C29.1835 22.6098 29.3212 23.3018 29.3212 24.0006C29.3212 24.6995 29.1835 25.3914 28.9161 26.0371C28.6487 26.6827 28.2567 27.2693 27.7626 27.7635C26.7646 28.7614 25.4111 29.3221 23.9997 29.3221C22.5884 29.3221 21.2349 28.7614 20.2369 27.7635C19.2389 26.7655 18.6783 25.412 18.6783 24.0006C18.6783 22.5893 19.2389 21.2358 20.2369 20.2378V20.2378ZM30.5014 19.4717C30.6238 19.3562 30.7219 19.2173 30.7897 19.0632C30.8575 18.9091 30.8937 18.743 30.8961 18.5747C30.8986 18.4064 30.8672 18.2393 30.8039 18.0833C30.7407 17.9273 30.6467 17.7856 30.5277 17.6666C30.4087 17.5475 30.267 17.4536 30.111 17.3903C29.955 17.327 29.7879 17.2957 29.6196 17.2981C29.4512 17.3006 29.2851 17.3368 29.131 17.4046C28.977 17.4724 28.8381 17.5704 28.7226 17.6929C28.4979 17.931 28.3749 18.2473 28.3797 18.5747C28.3845 18.902 28.5166 19.2146 28.7481 19.4461C28.9796 19.6776 29.2922 19.8098 29.6196 19.8146C29.9469 19.8193 30.2632 19.6964 30.5014 19.4717V19.4717Z" fill="black"/>
</svg>
