<svg width="54" height="54" viewBox="0 0 54 54" fill="none" xmlns="http://www.w3.org/2000/svg">
<path d="M36.8218 2.69995H17.1782C9.19484 2.69995 2.69995 9.19484 2.69995 17.1782V36.8218C2.69995 44.8051 9.19484 51.3 17.1782 51.3H36.8218C44.8051 51.3 51.3 44.8051 51.3 36.8218V17.1782C51.2999 9.19484 44.805 2.69995 36.8218 2.69995ZM46.4108 36.8218C46.4108 42.1176 42.1176 46.4108 36.8218 46.4108H17.1782C11.8823 46.4108 7.58911 42.1176 7.58911 36.8218V17.1782C7.58911 11.8822 11.8823 7.58911 17.1782 7.58911H36.8218C42.1176 7.58911 46.4108 11.8822 46.4108 17.1782V36.8218Z" fill="url(#paint0_linear_37_85)"/>
<path d="M27 14.4304C20.069 14.4304 14.4303 20.0692 14.4303 27C14.4303 33.9309 20.069 39.5697 27 39.5697C33.9309 39.5697 39.5697 33.931 39.5697 27C39.5697 20.0691 33.9309 14.4304 27 14.4304ZM27 34.6806C22.7581 34.6806 19.3195 31.242 19.3195 27.0001C19.3195 22.7582 22.7582 19.3196 27 19.3196C31.2419 19.3196 34.6805 22.7582 34.6805 27.0001C34.6805 31.2419 31.2418 34.6806 27 34.6806Z" fill="url(#paint1_linear_37_85)"/>
<path d="M39.5938 17.5367C41.2572 17.5367 42.6056 16.1882 42.6056 14.5248C42.6056 12.8614 41.2572 11.5129 39.5938 11.5129C37.9304 11.5129 36.5819 12.8614 36.5819 14.5248C36.5819 16.1882 37.9304 17.5367 39.5938 17.5367Z" fill="url(#paint2_linear_37_85)"/>
<defs>
<linearGradient id="paint0_linear_37_85" x1="27" y1="51.1584" x2="27" y2="3.07742" gradientUnits="userSpaceOnUse">
<stop stop-color="#E09B3D"/>
<stop offset="0.3" stop-color="#C74C4D"/>
<stop offset="0.6" stop-color="#C21975"/>
<stop offset="1" stop-color="#7024C4"/>
</linearGradient>
<linearGradient id="paint1_linear_37_85" x1="27" y1="51.1585" x2="27" y2="3.07758" gradientUnits="userSpaceOnUse">
<stop stop-color="#E09B3D"/>
<stop offset="0.3" stop-color="#C74C4D"/>
<stop offset="0.6" stop-color="#C21975"/>
<stop offset="1" stop-color="#7024C4"/>
</linearGradient>
<linearGradient id="paint2_linear_37_85" x1="39.5938" y1="51.1584" x2="39.5938" y2="3.07742" gradientUnits="userSpaceOnUse">
<stop stop-color="#E09B3D"/>
<stop offset="0.3" stop-color="#C74C4D"/>
<stop offset="0.6" stop-color="#C21975"/>
<stop offset="1" stop-color="#7024C4"/>
</linearGradient>
</defs>
</svg>
