<svg width="48" height="48" viewBox="0 0 48 48" fill="none" xmlns="http://www.w3.org/2000/svg">
<rect x="0.5" y="0.5" width="47" height="47" rx="23.5" fill="#7DFDFE" stroke="black"/>
<path d="M31.1437 19.0027C30.2055 18.7964 29.3567 18.2982 28.7193 17.5796C28.0818 16.861 27.6884 15.9589 27.5954 15.0027V14.5886H24.3484V27.4545C24.349 28.0254 24.1701 28.582 23.8368 29.0455C23.5035 29.509 23.0329 29.8559 22.4915 30.0371C21.9501 30.2182 21.3655 30.2244 20.8204 30.0549C20.2752 29.8853 19.7973 29.5485 19.4543 29.0922C19.1469 28.6882 18.9587 28.2064 18.9109 27.7011C18.8632 27.1958 18.9577 26.6872 19.1839 26.2329C19.4101 25.7785 19.7589 25.3965 20.1909 25.13C20.6229 24.8636 21.1208 24.7233 21.6284 24.7251C21.9091 24.7235 22.1884 24.7647 22.4566 24.8474V21.5533C22.1445 21.5147 21.8299 21.4989 21.5154 21.5063C20.3571 21.5372 19.233 21.9053 18.2807 22.5653C17.3284 23.2254 16.5892 24.1489 16.1537 25.2226C15.7182 26.2964 15.6053 27.4738 15.8288 28.6108C16.0522 29.7478 16.6024 30.7949 17.4119 31.6239C18.2415 32.4674 19.3032 33.0452 20.462 33.284C21.6208 33.5227 22.8243 33.4116 23.9198 32.9647C25.0153 32.5178 25.9532 31.7554 26.6144 30.7743C27.2756 29.7931 27.6301 28.6376 27.6331 27.4545V20.8663C28.9427 21.8018 30.5131 22.3022 32.1225 22.2969V19.0969C31.8064 19.0982 31.4909 19.0666 31.1813 19.0027H31.1437Z" fill="black"/>
</svg>
