<svg width="54" height="54" viewBox="0 0 54 54" fill="none" xmlns="http://www.w3.org/2000/svg">
<path fill-rule="evenodd" clip-rule="evenodd" d="M7.55995 2.69995H46.44C49.1242 2.69995 51.3 4.87568 51.3 7.55995V46.44C51.3 49.1242 49.1242 51.3 46.44 51.3H7.55995C4.87568 51.3 2.69995 49.1242 2.69995 46.44V7.55995C2.69995 4.87568 4.87568 2.69995 7.55995 2.69995Z" fill="#010101"/>
<path fill-rule="evenodd" clip-rule="evenodd" d="M33.2169 47.4118C34.6957 47.4118 35.8945 46.2227 35.8945 44.7559C35.8945 43.2892 34.6957 42.0999 33.2169 42.0999H32.8135C34.2923 42.0999 35.4911 43.2892 35.4911 44.7559C35.4911 46.2227 34.2923 47.4118 32.8135 47.4118H33.2169Z" fill="#EE1D51"/>
<path fill-rule="evenodd" clip-rule="evenodd" d="M32.777 42.0999H32.3737C30.8949 42.0999 29.6958 43.2892 29.6958 44.7559C29.6958 46.2227 30.8949 47.4118 32.3737 47.4118H32.777C31.298 47.4118 30.0992 46.2227 30.0992 44.7559C30.0992 43.2892 31.298 42.0999 32.777 42.0999V42.0999Z" fill="#66C8CF"/>
<path d="M32.7953 46.0476C33.5146 46.0476 34.0976 45.4695 34.0976 44.7562C34.0976 44.043 33.5146 43.4648 32.7953 43.4648C32.0761 43.4648 31.493 44.043 31.493 44.7562C31.493 45.4695 32.0761 46.0476 32.7953 46.0476Z" fill="#010101"/>
<path fill-rule="evenodd" clip-rule="evenodd" d="M12.4202 40.8997V42.2459H13.9971V47.3757H15.5747V42.2822H16.8583L17.2984 40.8997H12.4202ZM25.3312 40.8997V42.2459H26.9082V47.3757H28.4858V42.2822H29.7694L30.2095 40.8997H25.3312ZM17.5922 41.6636C17.5922 41.2418 17.9365 40.8997 18.3618 40.8997C18.7875 40.8997 19.1322 41.2418 19.1322 41.6636C19.1322 42.0855 18.7877 42.4276 18.3618 42.4276C17.9365 42.4274 17.5922 42.0855 17.5922 41.6636ZM17.5922 42.9735H19.1322V47.3757H17.5922V42.9735ZM19.7926 40.8997V47.3757H21.3332V45.7023L21.8101 45.2653L23.3138 47.4121H24.9642L22.8 44.2832L24.744 42.3911H22.8734L21.3332 43.9191V40.8997H19.7926ZM36.408 40.8997V47.3757H37.9488V45.7023L38.4254 45.2653L39.9295 47.4121H41.5802L39.4159 44.2832L41.3599 42.3911H39.4894L37.9488 43.9191V40.8997H36.408Z" fill="white"/>
<path fill-rule="evenodd" clip-rule="evenodd" d="M34.0305 18.4825C36.158 20.0025 38.7645 20.897 41.5794 20.897V15.4827C41.0466 15.483 40.5153 15.4274 39.9941 15.3169V19.5788C37.1793 19.5788 34.5732 18.6843 32.4451 17.1643V28.213C32.4451 33.7402 27.9623 38.2205 22.4326 38.2205C20.3694 38.2205 18.4516 37.5971 16.8585 36.5279C18.6767 38.386 21.2123 39.5388 24.0175 39.5388C29.5476 39.5388 34.0307 35.0584 34.0307 29.5311V18.4825H34.0305ZM35.9861 13.0203C34.8988 11.8331 34.185 10.2987 34.0305 8.60235V7.90601H32.5281C32.9062 10.0619 34.1961 11.9038 35.9861 13.0203V13.0203ZM20.356 32.2867C19.7486 31.4906 19.4202 30.5167 19.4217 29.5153C19.4217 26.9873 21.4722 24.9378 24.0019 24.9378C24.4733 24.9375 24.942 25.0098 25.3913 25.1522V19.6171C24.8663 19.5451 24.3364 19.5147 23.8066 19.5259V23.8342C23.357 23.6917 22.8882 23.6194 22.4166 23.6197C19.8869 23.6197 17.8365 25.6693 17.8365 28.1975C17.8365 29.985 18.8614 31.5328 20.356 32.2867V32.2867Z" fill="#EE1D52"/>
<path fill-rule="evenodd" clip-rule="evenodd" d="M32.4454 17.1643C34.5735 18.6843 37.1796 19.5788 39.9943 19.5788V15.3169C38.4232 14.9826 37.0323 14.1618 35.9864 13.0203C34.1964 11.9038 32.9065 10.0619 32.5284 7.90601H28.5823V29.5309C28.5733 32.0518 26.5263 34.093 24.002 34.093C22.5145 34.093 21.1929 33.3845 20.3561 32.2867C18.8615 31.5328 17.8366 29.985 17.8366 28.1975C17.8366 25.6693 19.887 23.6197 22.4167 23.6197C22.9013 23.6197 23.3685 23.6952 23.8067 23.8342V19.5259C18.3741 19.638 14.005 24.0746 14.005 29.5311C14.005 32.2548 15.0931 34.7241 16.8588 36.5281C18.4519 37.5973 20.3697 38.2207 22.4328 38.2207C27.9625 38.2207 32.4454 33.7402 32.4454 28.2132V17.1643Z" fill="white"/>
<path fill-rule="evenodd" clip-rule="evenodd" d="M39.9946 15.3171V14.1647C38.5777 14.1668 37.1888 13.7702 35.9867 13.0202C37.0508 14.1847 38.452 14.9877 39.9946 15.3171V15.3171ZM32.5287 7.90617C32.4926 7.70015 32.4649 7.49275 32.4457 7.28448V6.58813H26.9971V28.2132C26.9883 30.734 24.9415 32.7752 22.417 32.7752C21.6757 32.7752 20.9761 32.5994 20.3564 32.2868C21.1932 33.3846 22.5148 34.0932 24.0023 34.0932C26.5264 34.0932 28.5736 32.052 28.5826 29.531V7.90617H32.5287ZM23.8071 19.526V18.2992C23.3519 18.2369 22.8928 18.2058 22.4333 18.2061C16.903 18.2061 12.4202 22.6866 12.4202 28.2132C12.4202 31.6782 14.182 34.7318 16.8593 36.5281C15.0936 34.724 14.0055 32.2548 14.0055 29.531C14.0055 24.0748 18.3744 19.6382 23.8071 19.526V19.526Z" fill="#69C9D0"/>
<path fill-rule="evenodd" clip-rule="evenodd" d="M32.8132 47.4118C34.292 47.4118 35.4911 46.2227 35.4911 44.7559C35.4911 43.2892 34.292 42.0999 32.8132 42.0999H32.7767C31.2979 42.0999 30.099 43.2892 30.099 44.7559C30.099 46.2227 31.2979 47.4118 32.7767 47.4118H32.8132ZM31.4928 44.7559C31.4928 44.0425 32.076 43.4645 32.7953 43.4645C33.514 43.4645 34.0972 44.0425 34.0972 44.7559C34.0972 45.4694 33.514 46.0477 32.7953 46.0477C32.076 46.0475 31.4928 45.4694 31.4928 44.7559Z" fill="white"/>
</svg>
