<svg width="312" height="18" viewBox="0 0 312 18" fill="none" xmlns="http://www.w3.org/2000/svg">
<path d="M5.85125 1.736C6.93925 1.736 7.90458 1.98133 8.74725 2.472C9.58992 2.952 10.2459 3.624 10.7153 4.488C11.1846 5.352 11.4193 6.33333 11.4193 7.432C11.4193 8.53067 11.1846 9.51733 10.7153 10.392C10.2459 11.256 9.58992 11.9333 8.74725 12.424C7.90458 12.904 6.93925 13.144 5.85125 13.144C4.76325 13.144 3.79258 12.904 2.93925 12.424C2.09658 11.9333 1.44058 11.256 0.97125 10.392C0.501917 9.51733 0.26725 8.53067 0.26725 7.432C0.26725 6.33333 0.501917 5.352 0.97125 4.488C1.44058 3.624 2.09658 2.952 2.93925 2.472C3.79258 1.98133 4.76325 1.736 5.85125 1.736ZM5.85125 2.472C4.88058 2.472 4.03258 2.67467 3.30725 3.08C2.59258 3.48533 2.03792 4.06667 1.64325 4.824C1.25925 5.57067 1.06725 6.44 1.06725 7.432C1.06725 8.424 1.25925 9.29333 1.64325 10.04C2.03792 10.7867 2.59258 11.368 3.30725 11.784C4.03258 12.2 4.88058 12.408 5.85125 12.408C6.81125 12.408 7.64858 12.2 8.36325 11.784C9.08858 11.368 9.64325 10.7867 10.0273 10.04C10.4219 9.29333 10.6193 8.424 10.6193 7.432C10.6193 6.44 10.4219 5.57067 10.0273 4.824C9.64325 4.06667 9.09392 3.48533 8.37925 3.08C7.66458 2.67467 6.82192 2.472 5.85125 2.472ZM5.80325 3.752C5.15258 3.752 4.56058 3.90667 4.02725 4.216C3.49392 4.51467 3.07258 4.94133 2.76325 5.496C2.46458 6.05067 2.31525 6.69067 2.31525 7.416C2.31525 8.14133 2.46992 8.78667 2.77925 9.352C3.08858 9.90667 3.50458 10.3387 4.02725 10.648C4.56058 10.9467 5.15258 11.096 5.80325 11.096C6.61392 11.096 7.31258 10.8827 7.89925 10.456C8.48592 10.0187 8.88058 9.448 9.08325 8.744H7.41925C7.28058 9.08533 7.08325 9.34667 6.82725 9.528C6.57125 9.70933 6.22992 9.8 5.80325 9.8C5.23792 9.8 4.78458 9.59733 4.44325 9.192C4.10192 8.776 3.93125 8.184 3.93125 7.416C3.93125 6.648 4.10192 6.06133 4.44325 5.656C4.78458 5.25067 5.23792 5.048 5.80325 5.048C6.20858 5.048 6.54992 5.13867 6.82725 5.32C7.11525 5.50133 7.31258 5.76267 7.41925 6.104H9.08325C8.88058 5.35733 8.49125 4.78133 7.91525 4.376C7.33925 3.96 6.63525 3.752 5.80325 3.752ZM18.2805 10.52C19.3045 9.63467 20.1098 8.90933 20.6965 8.344C21.2938 7.768 21.7898 7.17067 22.1845 6.552C22.5792 5.93333 22.7765 5.31467 22.7765 4.696C22.7765 4.056 22.6218 3.55467 22.3125 3.192C22.0138 2.82933 21.5392 2.648 20.8885 2.648C20.2592 2.648 19.7685 2.85067 19.4165 3.256C19.0752 3.65067 18.8938 4.184 18.8725 4.856H17.1125C17.1445 3.64 17.5072 2.712 18.2005 2.072C18.9045 1.42133 19.7952 1.096 20.8725 1.096C22.0352 1.096 22.9418 1.416 23.5925 2.056C24.2538 2.696 24.5845 3.54933 24.5845 4.616C24.5845 5.384 24.3872 6.12533 23.9925 6.84C23.6085 7.544 23.1445 8.17867 22.6005 8.744C22.0672 9.29867 21.3845 9.944 20.5525 10.68L19.8325 11.32H24.9045V12.84H17.1285V11.512L18.2805 10.52ZM26.5069 7.016C26.5069 5.17067 26.8162 3.73067 27.4349 2.696C28.0642 1.65067 29.1415 1.128 30.6669 1.128C32.1922 1.128 33.2642 1.65067 33.8829 2.696C34.5122 3.73067 34.8269 5.17067 34.8269 7.016C34.8269 8.88267 34.5122 10.344 33.8829 11.4C33.2642 12.4453 32.1922 12.968 30.6669 12.968C29.1415 12.968 28.0642 12.4453 27.4349 11.4C26.8162 10.344 26.5069 8.88267 26.5069 7.016ZM33.0349 7.016C33.0349 6.152 32.9762 5.42133 32.8589 4.824C32.7522 4.22667 32.5282 3.74133 32.1869 3.368C31.8455 2.984 31.3389 2.792 30.6669 2.792C29.9949 2.792 29.4882 2.984 29.1469 3.368C28.8055 3.74133 28.5762 4.22667 28.4589 4.824C28.3522 5.42133 28.2989 6.152 28.2989 7.016C28.2989 7.912 28.3522 8.664 28.4589 9.272C28.5655 9.88 28.7895 10.3707 29.1309 10.744C29.4829 11.1173 29.9949 11.304 30.6669 11.304C31.3389 11.304 31.8455 11.1173 32.1869 10.744C32.5389 10.3707 32.7682 9.88 32.8749 9.272C32.9815 8.664 33.0349 7.912 33.0349 7.016ZM37.7649 10.52C38.7889 9.63467 39.5942 8.90933 40.1809 8.344C40.7782 7.768 41.2742 7.17067 41.6689 6.552C42.0635 5.93333 42.2609 5.31467 42.2609 4.696C42.2609 4.056 42.1062 3.55467 41.7969 3.192C41.4982 2.82933 41.0235 2.648 40.3729 2.648C39.7435 2.648 39.2529 2.85067 38.9009 3.256C38.5595 3.65067 38.3782 4.184 38.3569 4.856H36.5969C36.6289 3.64 36.9915 2.712 37.6849 2.072C38.3889 1.42133 39.2795 1.096 40.3569 1.096C41.5195 1.096 42.4262 1.416 43.0769 2.056C43.7382 2.696 44.0689 3.54933 44.0689 4.616C44.0689 5.384 43.8715 6.12533 43.4769 6.84C43.0929 7.544 42.6289 8.17867 42.0849 8.744C41.5515 9.29867 40.8689 9.944 40.0369 10.68L39.3169 11.32H44.3889V12.84H36.6129V11.512L37.7649 10.52ZM45.7513 3V1.336H49.0793V13H47.2393V3H45.7513ZM58.593 6.44V7.976H52.017V6.44H58.593ZM61.9524 10.52C62.9764 9.63467 63.7817 8.90933 64.3684 8.344C64.9657 7.768 65.4617 7.17067 65.8564 6.552C66.251 5.93333 66.4484 5.31467 66.4484 4.696C66.4484 4.056 66.2937 3.55467 65.9844 3.192C65.6857 2.82933 65.211 2.648 64.5604 2.648C63.931 2.648 63.4404 2.85067 63.0884 3.256C62.747 3.65067 62.5657 4.184 62.5444 4.856H60.7844C60.8164 3.64 61.179 2.712 61.8724 2.072C62.5764 1.42133 63.467 1.096 64.5444 1.096C65.707 1.096 66.6137 1.416 67.2644 2.056C67.9257 2.696 68.2564 3.54933 68.2564 4.616C68.2564 5.384 68.059 6.12533 67.6644 6.84C67.2804 7.544 66.8164 8.17867 66.2724 8.744C65.739 9.29867 65.0564 9.944 64.2244 10.68L63.5044 11.32H68.5764V12.84H60.8004V11.512L61.9524 10.52ZM71.1868 10.52C72.2108 9.63467 73.0161 8.90933 73.6028 8.344C74.2001 7.768 74.6961 7.17067 75.0908 6.552C75.4854 5.93333 75.6828 5.31467 75.6828 4.696C75.6828 4.056 75.5281 3.55467 75.2188 3.192C74.9201 2.82933 74.4454 2.648 73.7948 2.648C73.1654 2.648 72.6748 2.85067 72.3228 3.256C71.9814 3.65067 71.8001 4.184 71.7788 4.856H70.0188C70.0508 3.64 70.4134 2.712 71.1068 2.072C71.8108 1.42133 72.7014 1.096 73.7788 1.096C74.9414 1.096 75.8481 1.416 76.4988 2.056C77.1601 2.696 77.4908 3.54933 77.4908 4.616C77.4908 5.384 77.2934 6.12533 76.8988 6.84C76.5148 7.544 76.0508 8.17867 75.5068 8.744C74.9734 9.29867 74.2908 9.944 73.4588 10.68L72.7388 11.32H77.8108V12.84H70.0348V11.512L71.1868 10.52ZM98.2894 1.88L94.9934 13H92.9294L90.5934 4.584L88.1134 13L86.0654 13.016L82.9134 1.88H84.8494L87.1534 10.936L89.6494 1.88H91.6974L94.0174 10.888L96.3374 1.88H98.2894ZM99.1858 8.552C99.1858 7.66667 99.3671 6.88267 99.7298 6.2C100.103 5.51733 100.604 4.98933 101.234 4.616C101.874 4.232 102.578 4.04 103.346 4.04C104.039 4.04 104.642 4.17867 105.154 4.456C105.676 4.72267 106.092 5.05867 106.402 5.464V4.184H108.242V13H106.402V11.688C106.092 12.104 105.671 12.4507 105.138 12.728C104.604 13.0053 103.996 13.144 103.314 13.144C102.556 13.144 101.863 12.952 101.234 12.568C100.604 12.1733 100.103 11.6293 99.7298 10.936C99.3671 10.232 99.1858 9.43733 99.1858 8.552ZM106.402 8.584C106.402 7.976 106.274 7.448 106.018 7C105.772 6.552 105.447 6.21067 105.042 5.976C104.636 5.74133 104.199 5.624 103.73 5.624C103.26 5.624 102.823 5.74133 102.418 5.976C102.012 6.2 101.682 6.536 101.426 6.984C101.18 7.42133 101.058 7.944 101.058 8.552C101.058 9.16 101.18 9.69333 101.426 10.152C101.682 10.6107 102.012 10.9627 102.418 11.208C102.834 11.4427 103.271 11.56 103.73 11.56C104.199 11.56 104.636 11.4427 105.042 11.208C105.447 10.9733 105.772 10.632 106.018 10.184C106.274 9.72533 106.402 9.192 106.402 8.584ZM118.574 4.184L113.166 17.144H111.278L113.07 12.856L109.598 4.184H111.63L114.11 10.904L116.686 4.184H118.574ZM123.358 11.368L125.854 4.184H127.79L124.43 13H122.254L118.91 4.184H120.862L123.358 11.368ZM137.249 8.376C137.249 8.70667 137.227 9.00533 137.185 9.272H130.449C130.502 9.976 130.763 10.5413 131.233 10.968C131.702 11.3947 132.278 11.608 132.961 11.608C133.942 11.608 134.635 11.1973 135.041 10.376H137.009C136.742 11.1867 136.257 11.8533 135.553 12.376C134.859 12.888 133.995 13.144 132.961 13.144C132.118 13.144 131.361 12.9573 130.689 12.584C130.027 12.2 129.505 11.6667 129.121 10.984C128.747 10.2907 128.561 9.49067 128.561 8.584C128.561 7.67733 128.742 6.88267 129.105 6.2C129.478 5.50667 129.995 4.97333 130.657 4.6C131.329 4.22667 132.097 4.04 132.961 4.04C133.793 4.04 134.534 4.22133 135.185 4.584C135.835 4.94667 136.342 5.45867 136.705 6.12C137.067 6.77067 137.249 7.52267 137.249 8.376ZM135.345 7.8C135.334 7.128 135.094 6.58933 134.625 6.184C134.155 5.77867 133.574 5.576 132.881 5.576C132.251 5.576 131.713 5.77867 131.265 6.184C130.817 6.57867 130.55 7.11733 130.465 7.8H135.345ZM138.228 1.736H142.148V2.824H140.884L140.9 7.368H139.46L139.492 2.824H138.228V1.736ZM149.844 1.736V7.368H148.532L148.5 3.56L146.916 7.368H145.94L144.372 3.48V7.368H143.076V1.736H144.932L146.468 5.688L148.084 1.736H149.844ZM162.937 6.44V7.976H156.361V6.44H162.937ZM176.388 10.728H171.732L170.932 13H169.028L173.012 1.864H175.124L179.108 13H177.188L176.388 10.728ZM175.876 9.24L174.068 4.072L172.244 9.24H175.876ZM182.665 1.16V13H180.841V1.16H182.665ZM186.883 1.16V13H185.059V1.16H186.883ZM195.258 5.464C195.525 5.016 195.877 4.66933 196.314 4.424C196.762 4.168 197.29 4.04 197.898 4.04V5.928H197.434C196.72 5.928 196.176 6.10933 195.802 6.472C195.44 6.83467 195.258 7.464 195.258 8.36V13H193.434V4.184H195.258V5.464ZM200.503 3.016C200.172 3.016 199.895 2.904 199.671 2.68C199.447 2.456 199.335 2.17867 199.335 1.848C199.335 1.51733 199.447 1.24 199.671 1.016C199.895 0.791999 200.172 0.679999 200.503 0.679999C200.823 0.679999 201.095 0.791999 201.319 1.016C201.543 1.24 201.655 1.51733 201.655 1.848C201.655 2.17867 201.543 2.456 201.319 2.68C201.095 2.904 200.823 3.016 200.503 3.016ZM201.399 4.184V13H199.575V4.184H201.399ZM207.346 4.04C208.028 4.04 208.631 4.17867 209.154 4.456C209.687 4.72267 210.103 5.05867 210.402 5.464V4.184H212.242V13.144C212.242 13.9547 212.071 14.6747 211.73 15.304C211.388 15.944 210.892 16.4453 210.242 16.808C209.602 17.1707 208.834 17.352 207.938 17.352C206.743 17.352 205.751 17.0693 204.962 16.504C204.172 15.9493 203.724 15.192 203.618 14.232H205.426C205.564 14.6907 205.858 15.0587 206.306 15.336C206.764 15.624 207.308 15.768 207.938 15.768C208.674 15.768 209.266 15.544 209.714 15.096C210.172 14.648 210.402 13.9973 210.402 13.144V11.672C210.092 12.088 209.671 12.44 209.138 12.728C208.615 13.0053 208.018 13.144 207.346 13.144C206.578 13.144 205.874 12.952 205.234 12.568C204.604 12.1733 204.103 11.6293 203.73 10.936C203.367 10.232 203.186 9.43733 203.186 8.552C203.186 7.66667 203.367 6.88267 203.73 6.2C204.103 5.51733 204.604 4.98933 205.234 4.616C205.874 4.232 206.578 4.04 207.346 4.04ZM210.402 8.584C210.402 7.976 210.274 7.448 210.018 7C209.772 6.552 209.447 6.21067 209.042 5.976C208.636 5.74133 208.199 5.624 207.73 5.624C207.26 5.624 206.823 5.74133 206.418 5.976C206.012 6.2 205.682 6.536 205.426 6.984C205.18 7.42133 205.058 7.944 205.058 8.552C205.058 9.16 205.18 9.69333 205.426 10.152C205.682 10.6107 206.012 10.9627 206.418 11.208C206.834 11.4427 207.271 11.56 207.73 11.56C208.199 11.56 208.636 11.4427 209.042 11.208C209.447 10.9733 209.772 10.632 210.018 10.184C210.274 9.72533 210.402 9.192 210.402 8.584ZM219.198 4.04C219.87 4.04 220.467 4.184 220.99 4.472C221.523 4.76 221.939 5.18667 222.238 5.752C222.547 6.31733 222.702 7 222.702 7.8V13H220.894V8.072C220.894 7.28267 220.696 6.68 220.302 6.264C219.907 5.83733 219.368 5.624 218.686 5.624C218.003 5.624 217.459 5.83733 217.054 6.264C216.659 6.68 216.462 7.28267 216.462 8.072V13H214.638V1.16H216.462V5.208C216.771 4.83467 217.16 4.54667 217.63 4.344C218.11 4.14133 218.632 4.04 219.198 4.04ZM227.156 5.672V10.552C227.156 10.8827 227.231 11.1227 227.38 11.272C227.54 11.4107 227.807 11.48 228.18 11.48H229.3V13H227.86C227.039 13 226.409 12.808 225.972 12.424C225.535 12.04 225.316 11.416 225.316 10.552V5.672H224.276V4.184H225.316V1.992H227.156V4.184H229.3V5.672H227.156ZM234.181 13.144C233.488 13.144 232.864 13.0213 232.309 12.776C231.765 12.52 231.333 12.1787 231.013 11.752C230.693 11.3147 230.523 10.8293 230.501 10.296H232.389C232.421 10.6693 232.597 10.984 232.917 11.24C233.248 11.4853 233.659 11.608 234.149 11.608C234.661 11.608 235.056 11.512 235.333 11.32C235.621 11.1173 235.765 10.8613 235.765 10.552C235.765 10.2213 235.605 9.976 235.285 9.816C234.976 9.656 234.48 9.48 233.797 9.288C233.136 9.10667 232.597 8.93067 232.181 8.76C231.765 8.58933 231.403 8.328 231.093 7.976C230.795 7.624 230.645 7.16 230.645 6.584C230.645 6.11467 230.784 5.688 231.061 5.304C231.339 4.90933 231.733 4.6 232.245 4.376C232.768 4.152 233.365 4.04 234.037 4.04C235.04 4.04 235.845 4.296 236.453 4.808C237.072 5.30933 237.403 5.99733 237.445 6.872H235.621C235.589 6.47733 235.429 6.16267 235.141 5.928C234.853 5.69333 234.464 5.576 233.973 5.576C233.493 5.576 233.125 5.66667 232.869 5.848C232.613 6.02933 232.485 6.26933 232.485 6.568C232.485 6.80267 232.571 7 232.741 7.16C232.912 7.32 233.12 7.448 233.365 7.544C233.611 7.62933 233.973 7.74133 234.453 7.88C235.093 8.05067 235.616 8.22667 236.021 8.408C236.437 8.57867 236.795 8.83467 237.093 9.176C237.392 9.51733 237.547 9.97067 237.557 10.536C237.557 11.0373 237.419 11.4853 237.141 11.88C236.864 12.2747 236.469 12.584 235.957 12.808C235.456 13.032 234.864 13.144 234.181 13.144ZM245.508 5.464C245.775 5.016 246.127 4.66933 246.564 4.424C247.012 4.168 247.54 4.04 248.148 4.04V5.928H247.684C246.97 5.928 246.426 6.10933 246.052 6.472C245.69 6.83467 245.508 7.464 245.508 8.36V13H243.684V4.184H245.508V5.464ZM257.905 8.376C257.905 8.70667 257.884 9.00533 257.841 9.272H251.105C251.158 9.976 251.42 10.5413 251.889 10.968C252.358 11.3947 252.934 11.608 253.617 11.608C254.598 11.608 255.292 11.1973 255.697 10.376H257.665C257.398 11.1867 256.913 11.8533 256.209 12.376C255.516 12.888 254.652 13.144 253.617 13.144C252.774 13.144 252.017 12.9573 251.345 12.584C250.684 12.2 250.161 11.6667 249.777 10.984C249.404 10.2907 249.217 9.49067 249.217 8.584C249.217 7.67733 249.398 6.88267 249.761 6.2C250.134 5.50667 250.652 4.97333 251.313 4.6C251.985 4.22667 252.753 4.04 253.617 4.04C254.449 4.04 255.19 4.22133 255.841 4.584C256.492 4.94667 256.998 5.45867 257.361 6.12C257.724 6.77067 257.905 7.52267 257.905 8.376ZM256.001 7.8C255.99 7.128 255.75 6.58933 255.281 6.184C254.812 5.77867 254.23 5.576 253.537 5.576C252.908 5.576 252.369 5.77867 251.921 6.184C251.473 6.57867 251.206 7.11733 251.121 7.8H256.001ZM262.9 13.144C262.207 13.144 261.583 13.0213 261.028 12.776C260.484 12.52 260.052 12.1787 259.732 11.752C259.412 11.3147 259.241 10.8293 259.22 10.296H261.108C261.14 10.6693 261.316 10.984 261.636 11.24C261.967 11.4853 262.377 11.608 262.868 11.608C263.38 11.608 263.775 11.512 264.052 11.32C264.34 11.1173 264.484 10.8613 264.484 10.552C264.484 10.2213 264.324 9.976 264.004 9.816C263.695 9.656 263.199 9.48 262.516 9.288C261.855 9.10667 261.316 8.93067 260.9 8.76C260.484 8.58933 260.121 8.328 259.812 7.976C259.513 7.624 259.364 7.16 259.364 6.584C259.364 6.11467 259.503 5.688 259.78 5.304C260.057 4.90933 260.452 4.6 260.964 4.376C261.487 4.152 262.084 4.04 262.756 4.04C263.759 4.04 264.564 4.296 265.172 4.808C265.791 5.30933 266.121 5.99733 266.164 6.872H264.34C264.308 6.47733 264.148 6.16267 263.86 5.928C263.572 5.69333 263.183 5.576 262.692 5.576C262.212 5.576 261.844 5.66667 261.588 5.848C261.332 6.02933 261.204 6.26933 261.204 6.568C261.204 6.80267 261.289 7 261.46 7.16C261.631 7.32 261.839 7.448 262.084 7.544C262.329 7.62933 262.692 7.74133 263.172 7.88C263.812 8.05067 264.335 8.22667 264.74 8.408C265.156 8.57867 265.513 8.83467 265.812 9.176C266.111 9.51733 266.265 9.97067 266.276 10.536C266.276 11.0373 266.137 11.4853 265.86 11.88C265.583 12.2747 265.188 12.584 264.676 12.808C264.175 13.032 263.583 13.144 262.9 13.144ZM276.327 8.376C276.327 8.70667 276.306 9.00533 276.263 9.272H269.527C269.58 9.976 269.842 10.5413 270.311 10.968C270.78 11.3947 271.356 11.608 272.039 11.608C273.02 11.608 273.714 11.1973 274.119 10.376H276.087C275.82 11.1867 275.335 11.8533 274.631 12.376C273.938 12.888 273.074 13.144 272.039 13.144C271.196 13.144 270.439 12.9573 269.767 12.584C269.106 12.2 268.583 11.6667 268.199 10.984C267.826 10.2907 267.639 9.49067 267.639 8.584C267.639 7.67733 267.82 6.88267 268.183 6.2C268.556 5.50667 269.074 4.97333 269.735 4.6C270.407 4.22667 271.175 4.04 272.039 4.04C272.871 4.04 273.612 4.22133 274.263 4.584C274.914 4.94667 275.42 5.45867 275.783 6.12C276.146 6.77067 276.327 7.52267 276.327 8.376ZM274.423 7.8C274.412 7.128 274.172 6.58933 273.703 6.184C273.234 5.77867 272.652 5.576 271.959 5.576C271.33 5.576 270.791 5.77867 270.343 6.184C269.895 6.57867 269.628 7.11733 269.543 7.8H274.423ZM279.946 5.464C280.213 5.016 280.565 4.66933 281.002 4.424C281.45 4.168 281.978 4.04 282.586 4.04V5.928H282.122C281.407 5.928 280.863 6.10933 280.49 6.472C280.127 6.83467 279.946 7.464 279.946 8.36V13H278.122V4.184H279.946V5.464ZM287.671 11.368L290.167 4.184H292.102L288.743 13H286.567L283.223 4.184H285.174L287.671 11.368ZM301.561 8.376C301.561 8.70667 301.54 9.00533 301.497 9.272H294.761C294.815 9.976 295.076 10.5413 295.545 10.968C296.015 11.3947 296.591 11.608 297.273 11.608C298.255 11.608 298.948 11.1973 299.353 10.376H301.321C301.055 11.1867 300.569 11.8533 299.865 12.376C299.172 12.888 298.308 13.144 297.273 13.144C296.431 13.144 295.673 12.9573 295.001 12.584C294.34 12.2 293.817 11.6667 293.433 10.984C293.06 10.2907 292.873 9.49067 292.873 8.584C292.873 7.67733 293.055 6.88267 293.417 6.2C293.791 5.50667 294.308 4.97333 294.969 4.6C295.641 4.22667 296.409 4.04 297.273 4.04C298.105 4.04 298.847 4.22133 299.497 4.584C300.148 4.94667 300.655 5.45867 301.017 6.12C301.38 6.77067 301.561 7.52267 301.561 8.376ZM299.657 7.8C299.647 7.128 299.407 6.58933 298.937 6.184C298.468 5.77867 297.887 5.576 297.193 5.576C296.564 5.576 296.025 5.77867 295.577 6.184C295.129 6.57867 294.863 7.11733 294.777 7.8H299.657ZM302.748 8.552C302.748 7.66667 302.93 6.88267 303.292 6.2C303.666 5.51733 304.167 4.98933 304.796 4.616C305.436 4.232 306.146 4.04 306.924 4.04C307.5 4.04 308.066 4.168 308.62 4.424C309.186 4.66933 309.634 5 309.964 5.416V1.16H311.804V13H309.964V11.672C309.666 12.0987 309.25 12.4507 308.716 12.728C308.194 13.0053 307.591 13.144 306.908 13.144C306.14 13.144 305.436 12.952 304.796 12.568C304.167 12.1733 303.666 11.6293 303.292 10.936C302.93 10.232 302.748 9.43733 302.748 8.552ZM309.964 8.584C309.964 7.976 309.836 7.448 309.58 7C309.335 6.552 309.01 6.21067 308.604 5.976C308.199 5.74133 307.762 5.624 307.292 5.624C306.823 5.624 306.386 5.74133 305.98 5.976C305.575 6.2 305.244 6.536 304.988 6.984C304.743 7.42133 304.62 7.944 304.62 8.552C304.62 9.16 304.743 9.69333 304.988 10.152C305.244 10.6107 305.575 10.9627 305.98 11.208C306.396 11.4427 306.834 11.56 307.292 11.56C307.762 11.56 308.199 11.4427 308.604 11.208C309.01 10.9733 309.335 10.632 309.58 10.184C309.836 9.72533 309.964 9.192 309.964 8.584Z" fill="#4E5D78"/>
</svg>
